<svg width="1440" height="798" viewBox="0 0 1440 798" fill="none" xmlns="http://www.w3.org/2000/svg">
<g id="MacBook Pro - 2">
<g clip-path="url(#clip0)">
<rect width="1440" height="798" fill="url(#paint0_linear)"/>
<ellipse id="Ellipse 64" cx="1136" cy="596.5" rx="421" ry="374.5" fill="#7B70F5" fill-opacity="0.13"/>
<g id="Ellipse 65">
<ellipse cx="1131" cy="597" rx="347" ry="316" fill="#7B70F5" fill-opacity="0.05"/>
<ellipse cx="1131" cy="597" rx="347" ry="316" fill="#7B70F5" fill-opacity="0.02"/>
</g>
<g id="Ellipse 66">
<ellipse cx="1137.5" cy="633" rx="315.5" ry="296" fill="#7B70F5" fill-opacity="0.04"/>
<ellipse cx="1137.5" cy="633" rx="315.5" ry="296" fill="#7B70F5" fill-opacity="0.04"/>
</g>
<g id="Building 3">
<path id="Rectangle 27" d="M982.489 501L1042 481L1025.7 681H967L982.489 501Z" fill="#05FFE1"/>
<path id="Rectangle 28" d="M1041.34 481L1053.63 486.321L1061 657H1027L1041.34 481Z" fill="#6F38F1"/>
<path id="Rectangle 29" d="M988 504L992 503V507L988 508V504Z" fill="#7B70F5"/>
<path id="Rectangle 30" d="M992 503L996 502V506L992 507V503Z" fill="#7B70F5"/>
<path id="Rectangle 31" d="M999 501L1003 500V504L999 505V501Z" fill="#7B70F5"/>
<path id="Rectangle 29_2" d="M1019 520L1023 519V523L1019 524V520Z" fill="#7B70F5"/>
<path id="Rectangle 30_2" d="M1023 519L1027 518V522L1023 523V519Z" fill="#7B70F5"/>
<path id="Rectangle 31_2" d="M1030 517L1034 516V520L1030 521V517Z" fill="#7B70F5"/>
<path id="Rectangle 29_3" d="M1021 507L1025 506V510L1021 511V507Z" fill="#7B70F5"/>
<path id="Rectangle 30_3" d="M1025 506L1029 505V509L1025 510V506Z" fill="#7B70F5"/>
<path id="Rectangle 31_3" d="M1032 504L1036 503V507L1032 508V504Z" fill="#7B70F5"/>
<path id="Rectangle 29_4" d="M982 561L986 560V564L982 565V561Z" fill="#7B70F5"/>
<path id="Rectangle 30_4" d="M986 560L990 559V563L986 564V560Z" fill="#7B70F5"/>
<path id="Rectangle 32" d="M997 557L1001 556V560L997 561V557Z" fill="#7B70F5"/>
<path id="Rectangle 33" d="M1015 521L1019 520V524L1015 525V521Z" fill="#7B70F5"/>
<path id="Rectangle 31_4" d="M993 558L997 557V561L993 562V558Z" fill="#7B70F5"/>
<path id="Rectangle 29_5" d="M1006 573L1010 572V576L1006 577V573Z" fill="#7B70F5"/>
<path id="Rectangle 30_5" d="M1010 572L1014 571V575L1010 576V572Z" fill="#7B70F5"/>
<path id="Rectangle 31_5" d="M1017 570L1021 569V573L1017 574V570Z" fill="#7B70F5"/>
</g>
<g id="Ellipse 13">
<path id="Ellipse 13_2" d="M1215 638.5C1215 758.284 1148.56 821 1015.85 821C883.128 821 463 758.284 463 638.5C463 518.716 825.59 418 958.308 418C572 703.5 774.5 638.5 1215 638.5Z" fill="url(#paint1_linear)"/>
</g>
<g id="Building2">
<path id="Rectangle 23" d="M1184 499.5H1206L1203 663.5H1184V499.5Z" fill="#05FFE1"/>
<path id="Rectangle 24" d="M1203 499.5H1245V663.5H1203V499.5Z" fill="#6F38F1"/>
<path id="Rectangle 25" d="M1213 470L1229.5 485.5L1245 499.5H1203L1213 470Z" fill="url(#paint2_linear)"/>
<path id="Rectangle 26" d="M1196 486.5L1213.5 470L1203 499.5H1184L1196 486.5Z" fill="url(#paint3_linear)"/>
<line id="Line 4" x1="1184" y1="512.5" x2="1245" y2="518.5" stroke="black" stroke-width="4"/>
<line id="Line 5" x1="1184" y1="520" x2="1245" y2="526" stroke="black" stroke-width="4"/>
<line id="Line 6" x1="1184" y1="505.5" x2="1245" y2="511.5" stroke="black" stroke-width="4"/>
</g>
<path id="Ellipse 67" d="M1016 234C1016 312.148 1511.04 356.5 1508 356.5C1618.5 366 1005 312.148 1005 234C1005 155.852 1291.96 -24 1295 -24C1298.04 -24 1016 155.852 1016 234Z" fill="#EA24FB"/>
<g id="Building 1">
<path id="Rectangle 14" d="M1160 194V319H1133.95L1160 194Z" fill="#05FFE1"/>
<path id="Rectangle 11" d="M1071.23 339.615L1160 275.5L1174 763H1071.23V339.615Z" fill="url(#paint4_linear)"/>
<path id="Rectangle 12" d="M1071.23 337V772H1050L1071.23 337Z" fill="#1CF1E4"/>
<path id="Rectangle 13" d="M1160 194V319H1140.7L1160 194Z" fill="#6F38F1"/>
<rect id="Rectangle 15" x="1077.98" y="400" width="4.82456" height="6" fill="#05FFE1"/>
<rect id="Rectangle 16" x="1082.81" y="400" width="4.82456" height="6" fill="#05FFE1"/>
<rect id="Rectangle 17" x="1090.53" y="400" width="4.82456" height="6" fill="#05FFE1"/>
<rect id="Rectangle 15_2" x="1108.86" y="470" width="4.82456" height="6" fill="#05FFE1"/>
<rect id="Rectangle 16_2" x="1113.68" y="470" width="4.82456" height="6" fill="#05FFE1"/>
<rect id="Rectangle 17_2" x="1121.4" y="470" width="4.82456" height="6" fill="#05FFE1"/>
<rect id="Rectangle 15_3" x="1138.77" y="337" width="4.82456" height="6" fill="#05FFE1"/>
<rect id="Rectangle 16_3" x="1143.6" y="337" width="4.82456" height="6" fill="#05FFE1"/>
<rect id="Rectangle 17_3" x="1151.32" y="337" width="4.82456" height="6" fill="#05FFE1"/>
<rect id="Rectangle 18" x="1140.7" y="440" width="4.82456" height="6" fill="#05FFE1"/>
<rect id="Rectangle 20" x="1135.88" y="440" width="4.82456" height="6" fill="#05FFE1"/>
<rect id="Rectangle 21" x="1126.23" y="440" width="4.82456" height="6" fill="#05FFE1"/>
<rect id="Rectangle 19" x="1149.39" y="440" width="4.82456" height="6" fill="#05FFE1"/>
<g id="window">
<g id="Group 7">
<rect id="Rectangle 18_2" x="1095.35" y="532" width="4.82456" height="6" fill="#05FFE1"/>
<rect id="Rectangle 20_2" x="1090.53" y="532" width="4.82456" height="6" fill="#05FFE1"/>
<rect id="Rectangle 21_2" x="1080.88" y="532" width="4.82456" height="6" fill="#05FFE1"/>
<rect id="Rectangle 19_2" x="1104.04" y="532" width="4.82456" height="6" fill="#05FFE1"/>
</g>
</g>
</g>
<g id="Ellipse 12">
<path id="Ellipse 12_2" d="M958.5 417.5C-445.5 817 2228 429 1960.5 708C2189.5 1695.5 -732.5 1500 -732.5 536.5C-732.5 257.596 -204.362 514 203.5 514C611.362 514 391.5 452.5 958.5 417.5Z" fill="white"/>
<ellipse id="Ellipse 14" cx="35" cy="625" rx="15" ry="8" fill="#C4C4C4"/>
<ellipse id="Ellipse 15" cx="35" cy="625" rx="15" ry="8" fill="#C4C4C4"/>
<ellipse id="Ellipse 16" cx="187" cy="597" rx="15" ry="8" fill="#C4C4C4"/>
<ellipse id="Ellipse 21" cx="209.5" cy="569" rx="12.5" ry="7" fill="#C4C4C4"/>
<ellipse id="Ellipse 22" cx="239.5" cy="583" rx="12.5" ry="7" fill="#C4C4C4"/>
<ellipse id="Ellipse 23" cx="262" cy="562.5" rx="10" ry="6.5" fill="#C4C4C4"/>
<ellipse id="Ellipse 24" cx="287" cy="573.5" rx="10" ry="6.5" fill="#C4C4C4"/>
<ellipse id="Ellipse 25" cx="303" cy="556" rx="9" ry="6" fill="#C4C4C4"/>
<ellipse id="Ellipse 26" cx="326" cy="563" rx="9" ry="6" fill="#C4C4C4"/>
<ellipse id="Ellipse 27" cx="343" cy="548.5" rx="8" ry="4.5" fill="#C4C4C4"/>
<ellipse id="Ellipse 28" cx="365" cy="554.5" rx="8" ry="4.5" fill="#C4C4C4"/>
<ellipse id="Ellipse 29" cx="373.5" cy="540.5" rx="6.5" ry="3.5" fill="#C4C4C4"/>
<ellipse id="Ellipse 30" cx="391.5" cy="544.5" rx="6.5" ry="3.5" fill="#C4C4C4"/>
<ellipse id="Ellipse 31" cx="399.5" cy="532.5" rx="5.5" ry="2.5" fill="#C4C4C4"/>
<ellipse id="Ellipse 32" cx="414.5" cy="535.5" rx="5.5" ry="2.5" fill="#C4C4C4"/>
<ellipse id="Ellipse 33" cx="417.5" cy="527" rx="5.5" ry="2" fill="#C4C4C4"/>
<ellipse id="Ellipse 34" cx="431.5" cy="529" rx="5.5" ry="2" fill="#C4C4C4"/>
<ellipse id="Ellipse 35" cx="434.5" cy="523" rx="5.5" ry="2" fill="#C4C4C4"/>
<ellipse id="Ellipse 37" cx="449" cy="518.5" rx="5" ry="1.5" fill="#C4C4C4"/>
<ellipse id="Ellipse 38" cx="461" cy="520.5" rx="5" ry="1.5" fill="#C4C4C4"/>
<ellipse id="Ellipse 39" cx="464" cy="515.5" rx="5" ry="1.5" fill="#C4C4C4"/>
<ellipse id="Ellipse 40" cx="475" cy="517.5" rx="5" ry="1.5" fill="#C4C4C4"/>
<path id="Ellipse 41" d="M480 512C480 512.552 477.985 513 475.5 513C473.015 513 471 512.552 471 512C471 511.448 473.015 511 475.5 511C477.985 511 480 511.448 480 512Z" fill="#C4C4C4"/>
<path id="Ellipse 42" d="M491 513C491 513.552 488.985 514 486.5 514C484.015 514 482 513.552 482 513C482 512.448 484.015 512 486.5 512C488.985 512 491 512.448 491 513Z" fill="#C4C4C4"/>
<path id="Ellipse 43" d="M494 509C494 509.552 491.985 510 489.5 510C487.015 510 485 509.552 485 509C485 508.448 487.015 508 489.5 508C491.985 508 494 508.448 494 509Z" fill="#C4C4C4"/>
<path id="Ellipse 44" d="M505 510C505 510.552 502.985 511 500.5 511C498.015 511 496 510.552 496 510C496 509.448 498.015 509 500.5 509C502.985 509 505 509.448 505 510Z" fill="#C4C4C4"/>
<path id="Ellipse 45" d="M507 506C507 506.552 504.985 507 502.5 507C500.015 507 498 506.552 498 506C498 505.448 500.015 505 502.5 505C504.985 505 507 505.448 507 506Z" fill="#C4C4C4"/>
<path id="Ellipse 46" d="M518 507C518 507.552 515.985 508 513.5 508C511.015 508 509 507.552 509 507C509 506.448 511.015 506 513.5 506C515.985 506 518 506.448 518 507Z" fill="#C4C4C4"/>
<path id="Ellipse 47" d="M519 502.5C519 502.776 517.209 503 515 503C512.791 503 511 502.776 511 502.5C511 502.224 512.791 502 515 502C517.209 502 519 502.224 519 502.5Z" fill="#C4C4C4"/>
<path id="Ellipse 48" d="M527 503.5C527 503.776 525.209 504 523 504C520.791 504 519 503.776 519 503.5C519 503.224 520.791 503 523 503C525.209 503 527 503.224 527 503.5Z" fill="#C4C4C4"/>
<path id="Ellipse 49" d="M529 499.5C529 499.776 527.209 500 525 500C522.791 500 521 499.776 521 499.5C521 499.224 522.791 499 525 499C527.209 499 529 499.224 529 499.5Z" fill="#C4C4C4"/>
<path id="Ellipse 50" d="M538 500.5C538 500.776 536.209 501 534 501C531.791 501 530 500.776 530 500.5C530 500.224 531.791 500 534 500C536.209 500 538 500.224 538 500.5Z" fill="#C4C4C4"/>
<path id="Ellipse 51" d="M540 496.5C540 496.776 538.209 497 536 497C533.791 497 532 496.776 532 496.5C532 496.224 533.791 496 536 496C538.209 496 540 496.224 540 496.5Z" fill="#C4C4C4"/>
<path id="Ellipse 52" d="M549 498.5C549 498.776 547.209 499 545 499C542.791 499 541 498.776 541 498.5C541 498.224 542.791 498 545 498C547.209 498 549 498.224 549 498.5Z" fill="#C4C4C4"/>
<path id="Ellipse 53" d="M547 494.5C547 494.776 545.657 495 544 495C542.343 495 541 494.776 541 494.5C541 494.224 542.343 494 544 494C545.657 494 547 494.224 547 494.5Z" fill="#C4C4C4"/>
<path id="Ellipse 54" d="M555 495.5C555 495.776 553.657 496 552 496C550.343 496 549 495.776 549 495.5C549 495.224 550.343 495 552 495C553.657 495 555 495.224 555 495.5Z" fill="#C4C4C4"/>
<path id="Ellipse 55" d="M557 492.5C557 492.776 555.657 493 554 493C552.343 493 551 492.776 551 492.5C551 492.224 552.343 492 554 492C555.657 492 557 492.224 557 492.5Z" fill="#C4C4C4"/>
<path id="Ellipse 56" d="M564 493.5C564 493.224 562.657 493 561 493C559.343 493 558 493.224 558 493.5C558 493.776 559.343 494 561 494C562.657 494 564 493.776 564 493.5Z" fill="#C4C4C4"/>
<path id="Ellipse 57" d="M566 490.5C566 490.224 564.657 490 563 490C561.343 490 560 490.224 560 490.5C560 490.776 561.343 491 563 491C564.657 491 566 490.776 566 490.5Z" fill="#C4C4C4"/>
<path id="Ellipse 58" d="M570 491.5C570 491.776 569.105 492 568 492C566.895 492 566 491.776 566 491.5C566 491.224 566.895 491 568 491C569.105 491 570 491.224 570 491.5Z" fill="#C4C4C4"/>
<path id="Ellipse 59" d="M572 489.5C572 489.776 571.105 490 570 490C568.895 490 568 489.776 568 489.5C568 489.224 568.895 489 570 489C571.105 489 572 489.224 572 489.5Z" fill="#C4C4C4"/>
<path id="Ellipse 60" d="M576 490.5C576 490.776 575.105 491 574 491C572.895 491 572 490.776 572 490.5C572 490.224 572.895 490 574 490C575.105 490 576 490.224 576 490.5Z" fill="#C4C4C4"/>
<path id="Ellipse 61" d="M578 488.5C578 488.776 577.105 489 576 489C574.895 489 574 488.776 574 488.5C574 488.224 574.895 488 576 488C577.105 488 578 488.224 578 488.5Z" fill="#C4C4C4"/>
<path id="Ellipse 62" d="M583 489.5C583 489.224 582.105 489 581 489C579.895 489 579 489.224 579 489.5C579 489.776 579.895 490 581 490C582.105 490 583 489.776 583 489.5Z" fill="#C4C4C4"/>
<path id="Ellipse 63" d="M584 487.5C584 487.224 583.105 487 582 487C580.895 487 580 487.224 580 487.5C580 487.776 580.895 488 582 488C583.105 488 584 487.776 584 487.5Z" fill="#C4C4C4"/>
<ellipse id="Ellipse 36" cx="448.5" cy="525" rx="5.5" ry="2" fill="#C4C4C4"/>
<ellipse id="Ellipse 17" cx="5" cy="597" rx="15" ry="8" fill="#C4C4C4"/>
<ellipse id="Ellipse 18" cx="141" cy="581" rx="15" ry="8" fill="#C4C4C4"/>
<ellipse id="Ellipse 19" cx="111" cy="609" rx="15" ry="8" fill="#C4C4C4"/>
<ellipse id="Ellipse 20" cx="65" cy="597" rx="15" ry="8" fill="#C4C4C4"/>
</g>
</g>
</g>
<defs>
<linearGradient id="paint0_linear" x1="720" y1="0" x2="921.785" y2="1122.68" gradientUnits="userSpaceOnUse">
<stop stop-color="#390165"/>
<stop offset="0.431617" stop-color="#801ECD"/>
<stop offset="0.530575" stop-color="#7224AF"/>
<stop offset="0.624325" stop-color="#7A14CB"/>
<stop offset="0.749325" stop-color="#DAC1ED"/>
<stop offset="0.822242" stop-color="#E4D3F2"/>
<stop offset="0.9212" stop-color="#F3EBF9"/>
<stop offset="1" stop-color="white"/>
</linearGradient>
<linearGradient id="paint1_linear" x1="834.5" y1="418" x2="1059.18" y2="899.64" gradientUnits="userSpaceOnUse">
<stop stop-color="#7862FF"/>
<stop offset="1" stop-color="#B163FF" stop-opacity="0"/>
</linearGradient>
<linearGradient id="paint2_linear" x1="1224" y1="470" x2="1224" y2="499.5" gradientUnits="userSpaceOnUse">
<stop stop-color="#6F38F1"/>
<stop offset="1" stop-color="#D810F9" stop-opacity="0.73"/>
</linearGradient>
<linearGradient id="paint3_linear" x1="1204.5" y1="469.5" x2="1202.5" y2="499.5" gradientUnits="userSpaceOnUse">
<stop stop-color="#05FFE1"/>
<stop offset="0.733732" stop-color="#BC75D5"/>
<stop offset="1" stop-color="#D810F9" stop-opacity="0.85"/>
</linearGradient>
<linearGradient id="paint4_linear" x1="1115.61" y1="219" x2="1115.61" y2="763" gradientUnits="userSpaceOnUse">
<stop stop-color="#6F38F1"/>
<stop offset="1" stop-color="#872AFF"/>
</linearGradient>
<clipPath id="clip0">
<rect width="1440" height="798" fill="white"/>
</clipPath>
</defs>
</svg>
