<svg width="1440" height="763" viewBox="0 0 1440 763" fill="none" xmlns="http://www.w3.org/2000/svg">
<g id="MacBook Pro - 2">
<g clip-path="url(#clip0)">
<rect width="1440" height="763" fill="url(#paint0_linear)"/>
<ellipse id="Ellipse 64" cx="1136" cy="596.5" rx="421" ry="374.5" fill="#7B70F5" fill-opacity="0.06"/>
<ellipse id="Ellipse 65" cx="1131" cy="597" rx="347" ry="316" fill="#7B70F5" fill-opacity="0.04"/>
<g id="Ellipse 66">
<ellipse cx="1137.5" cy="633" rx="315.5" ry="296" fill="#7B70F5" fill-opacity="0.02"/>
<ellipse cx="1137.5" cy="633" rx="315.5" ry="296" fill="#7B70F5" fill-opacity="0.03"/>
</g>
<g id="Group 19">
<g id="build4">
<path id="Rectangle 43" d="M957 472L1000 615L983.327 605.426L957 472Z" fill="#05FFE1"/>
<path id="Rectangle 42" d="M957 472L986.5 438L1066 446.5L1058.5 615H1000L957 472Z" fill="#350770"/>
</g>
<path id="Rectangle 45" d="M980.5 435L1066 446.5L986.5 438L980.5 435Z" fill="#7B70F5"/>
<path id="Rectangle 44" d="M980.5 435L986.5 438L957 472L980.5 435Z" fill="#05FFE1"/>
<rect id="Rectangle 46" x="989" y="457" width="3" height="3" fill="#C4C4C4"/>
<g id="Group 12">
<rect id="Rectangle 47" x="989" y="457" width="3" height="3" fill="#C4C4C4"/>
<rect id="Rectangle 48" x="989" y="457" width="3" height="3" fill="#D2FCFF"/>
<rect id="Rectangle 49" x="1001" y="457" width="3" height="3" fill="#D2FCFF"/>
<rect id="Rectangle 50" x="997" y="457" width="3" height="3" fill="#D2FCFF"/>
<rect id="Rectangle 51" x="992" y="457" width="3" height="3" fill="#D2FCFF"/>
</g>
<g id="Group 13">
<rect id="Rectangle 47_2" x="1023" y="469" width="3" height="3" fill="#C4C4C4"/>
<rect id="Rectangle 48_2" x="1023" y="469" width="3" height="3" fill="#D2FCFF"/>
<rect id="Rectangle 49_2" x="1035" y="469" width="3" height="3" fill="#D2FCFF"/>
<rect id="Rectangle 50_2" x="1031" y="469" width="3" height="3" fill="#D2FCFF"/>
<rect id="Rectangle 51_2" x="1026" y="469" width="3" height="3" fill="#D2FCFF"/>
</g>
<g id="Group 14">
<rect id="Rectangle 47_3" x="1058" y="486" width="3" height="3" transform="rotate(180 1058 486)" fill="#C4C4C4"/>
<rect id="Rectangle 48_3" x="1058" y="486" width="3" height="3" transform="rotate(180 1058 486)" fill="#D2FCFF"/>
<rect id="Rectangle 49_3" x="1046" y="486" width="3" height="3" transform="rotate(180 1046 486)" fill="#D2FCFF"/>
<rect id="Rectangle 50_3" x="1050" y="486" width="3" height="3" transform="rotate(180 1050 486)" fill="#D2FCFF"/>
<rect id="Rectangle 51_3" x="1055" y="486" width="3" height="3" transform="rotate(180 1055 486)" fill="#D2FCFF"/>
</g>
<g id="Group 15">
<rect id="Rectangle 47_4" x="989" y="477" width="3" height="3" fill="#C4C4C4"/>
<rect id="Rectangle 48_4" x="989" y="477" width="3" height="3" fill="#D2FCFF"/>
<rect id="Rectangle 49_4" x="1001" y="477" width="3" height="3" fill="#D2FCFF"/>
<rect id="Rectangle 50_4" x="997" y="477" width="3" height="3" fill="#D2FCFF"/>
<rect id="Rectangle 51_4" x="992" y="477" width="3" height="3" fill="#D2FCFF"/>
</g>
<g id="Group 16">
<rect id="Rectangle 47_5" x="1043" y="455" width="3" height="3" fill="#C4C4C4"/>
<rect id="Rectangle 48_5" x="1043" y="455" width="3" height="3" fill="#D2FCFF"/>
<rect id="Rectangle 49_5" x="1055" y="455" width="3" height="3" fill="#D2FCFF"/>
<rect id="Rectangle 50_5" x="1051" y="455" width="3" height="3" fill="#D2FCFF"/>
<rect id="Rectangle 51_5" x="1046" y="455" width="3" height="3" fill="#D2FCFF"/>
</g>
<g id="Group 17">
<rect id="Rectangle 47_6" x="989" y="486" width="3" height="3" fill="#C4C4C4"/>
<rect id="Rectangle 48_6" x="989" y="486" width="3" height="3" fill="#D2FCFF"/>
<rect id="Rectangle 49_6" x="1001" y="486" width="3" height="3" fill="#D2FCFF"/>
<rect id="Rectangle 50_6" x="997" y="486" width="3" height="3" fill="#D2FCFF"/>
<rect id="Rectangle 51_6" x="992" y="486" width="3" height="3" fill="#D2FCFF"/>
</g>
</g>
<g id="Building 3">
<path id="Rectangle 27" d="M982.489 501L1042 481L1025.7 681H967L982.489 501Z" fill="#05FFE1"/>
<path id="Rectangle 28" d="M1041.34 481L1053.63 486.321L1061 657H1027L1041.34 481Z" fill="#6F38F1"/>
<path id="Rectangle 29" d="M988 504L992 503V507L988 508V504Z" fill="#7B70F5"/>
<path id="Rectangle 30" d="M992 503L996 502V506L992 507V503Z" fill="#7B70F5"/>
<path id="Rectangle 31" d="M999 501L1003 500V504L999 505V501Z" fill="#7B70F5"/>
<path id="Rectangle 29_2" d="M1019 520L1023 519V523L1019 524V520Z" fill="#7B70F5"/>
<path id="Rectangle 30_2" d="M1023 519L1027 518V522L1023 523V519Z" fill="#7B70F5"/>
<path id="Rectangle 31_2" d="M1030 517L1034 516V520L1030 521V517Z" fill="#7B70F5"/>
<path id="Rectangle 29_3" d="M1021 507L1025 506V510L1021 511V507Z" fill="#7B70F5"/>
<path id="Rectangle 30_3" d="M1025 506L1029 505V509L1025 510V506Z" fill="#7B70F5"/>
<path id="Rectangle 31_3" d="M1032 504L1036 503V507L1032 508V504Z" fill="#7B70F5"/>
<path id="Rectangle 29_4" d="M982 561L986 560V564L982 565V561Z" fill="#7B70F5"/>
<path id="Rectangle 30_4" d="M986 560L990 559V563L986 564V560Z" fill="#7B70F5"/>
<path id="Rectangle 32" d="M997 557L1001 556V560L997 561V557Z" fill="#7B70F5"/>
<path id="Rectangle 33" d="M1015 521L1019 520V524L1015 525V521Z" fill="#7B70F5"/>
<path id="Rectangle 31_4" d="M993 558L997 557V561L993 562V558Z" fill="#7B70F5"/>
<path id="Rectangle 29_5" d="M1006 573L1010 572V576L1006 577V573Z" fill="#7B70F5"/>
<path id="Rectangle 30_5" d="M1010 572L1014 571V575L1010 576V572Z" fill="#7B70F5"/>
<path id="Rectangle 31_5" d="M1017 570L1021 569V573L1017 574V570Z" fill="#7B70F5"/>
</g>
<g id="Ellipse 13">
<path id="Ellipse 13_2" d="M1215 638.5C1215 758.284 1148.56 821 1015.85 821C883.128 821 463 758.284 463 638.5C463 518.716 825.59 418 958.308 418C572 703.5 774.5 638.5 1215 638.5Z" fill="url(#paint1_linear)"/>
</g>
<g id="Building2">
<path id="Rectangle 23" d="M1156 499.5H1178L1175 663.5H1156V499.5Z" fill="#05FFE1"/>
<path id="Rectangle 24" d="M1175 499.5H1217V663.5H1175V499.5Z" fill="#6F38F1"/>
<path id="Rectangle 25" d="M1185 470L1201.5 485.5L1217 499.5H1175L1185 470Z" fill="url(#paint2_linear)"/>
<path id="Rectangle 26" d="M1168 486.5L1185.5 470L1175 499.5H1156L1168 486.5Z" fill="url(#paint3_linear)"/>
<line id="Line 4" x1="1156" y1="512.5" x2="1217" y2="518.5" stroke="black" stroke-width="4"/>
<line id="Line 5" x1="1156" y1="520" x2="1217" y2="526" stroke="black" stroke-width="4"/>
<line id="Line 6" x1="1156" y1="505.5" x2="1217" y2="511.5" stroke="black" stroke-width="4"/>
</g>
<path id="Ellipse 67" d="M1016 234C1016 312.148 1511.04 356.5 1508 356.5C1618.5 366 1005 312.148 1005 234C1005 155.852 1291.96 -24 1295 -24C1298.04 -24 1016 155.852 1016 234Z" fill="#EA24FB"/>
<g id="Building 1">
<path id="Rectangle 14" d="M1160 194V319H1133.95L1160 194Z" fill="#05FFE1"/>
<path id="Rectangle 12" d="M1071.5 339.5L1072.23 772H1051L1071.5 339.5Z" fill="#1CF1E4"/>
<path id="Rectangle 11" d="M1071.23 339.615L1160 275.5L1174 763H1071.23V339.615Z" fill="url(#paint4_linear)"/>
<path id="Rectangle 13" d="M1160 194V319H1140.7L1160 194Z" fill="#6F38F1"/>
<rect id="Rectangle 15" x="1077.98" y="400" width="4.82456" height="6" fill="#05FFE1"/>
<rect id="Rectangle 16" x="1082.81" y="400" width="4.82456" height="6" fill="#05FFE1"/>
<rect id="Rectangle 17" x="1090.53" y="400" width="4.82456" height="6" fill="#05FFE1"/>
<rect id="Rectangle 15_2" x="1108.86" y="470" width="4.82456" height="6" fill="#05FFE1"/>
<rect id="Rectangle 22" x="1111" y="532" width="4.82456" height="6" fill="#05FFE1"/>
<rect id="Rectangle 17_2" x="1121.4" y="470" width="4.82456" height="6" fill="#05FFE1"/>
<rect id="Rectangle 15_3" x="1138.77" y="337" width="4.82456" height="6" fill="#05FFE1"/>
<rect id="Rectangle 16_2" x="1143.6" y="337" width="4.82456" height="6" fill="#05FFE1"/>
<rect id="Rectangle 17_3" x="1151.32" y="337" width="4.82456" height="6" fill="#05FFE1"/>
<rect id="Rectangle 18" x="1140.7" y="440" width="4.82456" height="6" fill="#05FFE1"/>
<rect id="Rectangle 20" x="1135.88" y="440" width="4.82456" height="6" fill="#05FFE1"/>
<g id="Group 8">
<rect id="Rectangle 22_2" x="1101" y="493" width="4.82456" height="6" fill="#05FFE1"/>
<rect id="Rectangle 23_2" x="1112" y="493" width="4.82456" height="6" fill="#05FFE1"/>
<rect id="Rectangle 25_2" x="1124" y="493" width="4.82456" height="6" fill="#05FFE1"/>
<rect id="Rectangle 26_2" x="1120" y="493" width="4.82456" height="6" fill="#05FFE1"/>
<rect id="Rectangle 24_2" x="1108" y="493" width="4.82456" height="6" fill="#05FFE1"/>
</g>
<g id="Group 9">
<rect id="Rectangle 22_3" x="1129" y="361" width="4.82456" height="6" fill="#05FFE1"/>
<rect id="Rectangle 23_3" x="1140" y="361" width="4.82456" height="6" fill="#05FFE1"/>
<rect id="Rectangle 25_3" x="1152" y="361" width="4.82456" height="6" fill="#05FFE1"/>
<rect id="Rectangle 26_3" x="1148" y="361" width="4.82456" height="6" fill="#05FFE1"/>
<rect id="Rectangle 24_3" x="1136" y="361" width="4.82456" height="6" fill="#05FFE1"/>
</g>
<g id="Group 11">
<rect id="Rectangle 22_4" x="1099" y="419" width="4.82456" height="6" fill="#05FFE1"/>
<rect id="Rectangle 23_4" x="1110" y="419" width="4.82456" height="6" fill="#05FFE1"/>
<rect id="Rectangle 25_4" x="1122" y="419" width="4.82456" height="6" fill="#05FFE1"/>
<rect id="Rectangle 26_4" x="1118" y="419" width="4.82456" height="6" fill="#05FFE1"/>
<rect id="Rectangle 24_4" x="1106" y="419" width="4.82456" height="6" fill="#05FFE1"/>
</g>
<g id="Group 24">
<rect id="Rectangle 22_5" x="1179" y="542" width="2.94767" height="2" fill="#05FFE1"/>
<rect id="Rectangle 23_5" x="1185.72" y="542" width="2.94767" height="2" fill="#05FFE1"/>
<rect id="Rectangle 25_5" x="1193.05" y="542" width="2.94767" height="2" fill="#05FFE1"/>
<rect id="Rectangle 26_5" x="1190.61" y="542" width="2.94767" height="2" fill="#05FFE1"/>
<rect id="Rectangle 24_5" x="1183.28" y="542" width="2.94767" height="2" fill="#05FFE1"/>
</g>
<g id="Group 25">
<rect id="Rectangle 22_6" x="1199" y="551" width="2.94767" height="2" fill="#05FFE1"/>
<rect id="Rectangle 23_6" x="1205.72" y="551" width="2.94767" height="2" fill="#05FFE1"/>
<rect id="Rectangle 25_6" x="1213.05" y="551" width="2.94767" height="2" fill="#05FFE1"/>
<rect id="Rectangle 26_6" x="1210.61" y="551" width="2.94767" height="2" fill="#05FFE1"/>
<rect id="Rectangle 24_6" x="1203.28" y="551" width="2.94767" height="2" fill="#05FFE1"/>
</g>
<g id="Group 10">
<rect id="Rectangle 22_7" x="1077" y="368" width="4.82456" height="6" fill="#05FFE1"/>
<rect id="Rectangle 23_7" x="1088" y="368" width="4.82456" height="6" fill="#05FFE1"/>
<rect id="Rectangle 25_7" x="1100" y="368" width="4.82456" height="6" fill="#05FFE1"/>
<rect id="Rectangle 26_7" x="1096" y="368" width="4.82456" height="6" fill="#05FFE1"/>
<rect id="Rectangle 24_7" x="1084" y="368" width="4.82456" height="6" fill="#05FFE1"/>
</g>
<rect id="Rectangle 21" x="1126.23" y="440" width="4.82456" height="6" fill="#05FFE1"/>
<rect id="Rectangle 19" x="1149.39" y="440" width="4.82456" height="6" fill="#05FFE1"/>
<g id="Group 22">
<rect id="Rectangle 23_8" x="1188" y="526" width="3" height="2" fill="#05FFE1"/>
<rect id="Rectangle 24_8" x="1185" y="526" width="3" height="2" fill="#05FFE1"/>
<rect id="Rectangle 25_8" x="1179" y="526" width="3" height="2" fill="#05FFE1"/>
<rect id="Rectangle 26_8" x="1193" y="526" width="3" height="2" fill="#05FFE1"/>
</g>
<g id="Group 23">
<rect id="Rectangle 23_9" x="1208" y="532" width="3" height="2" fill="#05FFE1"/>
<rect id="Rectangle 24_9" x="1205" y="532" width="3" height="2" fill="#05FFE1"/>
<rect id="Rectangle 25_9" x="1199" y="532" width="3" height="2" fill="#05FFE1"/>
<rect id="Rectangle 26_9" x="1213" y="532" width="3" height="2" fill="#05FFE1"/>
</g>
<g id="window">
<g id="Group 7">
<rect id="Rectangle 18_2" x="1095.35" y="532" width="4.82456" height="6" fill="#05FFE1"/>
<rect id="Rectangle 20_2" x="1090.53" y="532" width="4.82456" height="6" fill="#05FFE1"/>
<rect id="Rectangle 21_2" x="1080.88" y="532" width="4.82456" height="6" fill="#05FFE1"/>
<rect id="Rectangle 19_2" x="1104.04" y="532" width="4.82456" height="6" fill="#05FFE1"/>
</g>
</g>
</g>
<g id="Group 21">
<path id="Polygon 1" d="M1146.26 500.772L1263.47 721.709L1006.61 708.247L1146.26 500.772Z" fill="#05FFE1"/>
<path id="Rectangle 33_2" d="M1139.28 530.654L1143.28 530.654L1143.28 533.391L1139.28 533.391L1139.28 530.654Z" fill="#7B70F5"/>
<path id="Rectangle 53" d="M1138.28 535.654L1142.28 535.654L1142.28 538.391L1138.28 538.391L1138.28 535.654Z" fill="#7B70F5"/>
<path id="Rectangle 57" d="M1144.28 535.654L1148.28 535.654L1148.28 538.391L1144.28 538.391L1144.28 535.654Z" fill="#7B70F5"/>
<path id="Rectangle 58" d="M1134.28 535.654L1138.28 535.654L1138.28 538.391L1134.28 538.391L1134.28 535.654Z" fill="#7B70F5"/>
<path id="Rectangle 54" d="M1147.28 530.654L1151.28 530.654L1151.28 533.391L1147.28 533.391L1147.28 530.654Z" fill="#7B70F5"/>
<path id="Rectangle 55" d="M1132.28 530.654L1136.28 530.654L1136.28 533.391L1132.28 533.391L1132.28 530.654Z" fill="#7B70F5"/>
<path id="Rectangle 56" d="M1143.28 530.654L1147.28 530.654L1147.28 533.391L1143.28 533.391L1143.28 530.654Z" fill="#7B70F5"/>
<path id="Rectangle 64" d="M1153.28 549.654L1157.28 549.654L1157.28 552.391L1153.28 552.391L1153.28 549.654Z" fill="#7B70F5"/>
<path id="Rectangle 65" d="M1152.28 554.654L1156.28 554.654L1156.28 557.391L1152.28 557.391L1152.28 554.654Z" fill="#7B70F5"/>
<path id="Rectangle 66" d="M1158.28 554.654L1162.28 554.654L1162.28 557.391L1158.28 557.391L1158.28 554.654Z" fill="#7B70F5"/>
<path id="Rectangle 67" d="M1148.28 554.654L1152.28 554.654L1152.28 557.391L1148.28 557.391L1148.28 554.654Z" fill="#7B70F5"/>
<path id="Rectangle 68" d="M1161.28 549.654L1165.28 549.654L1165.28 552.391L1161.28 552.391L1161.28 549.654Z" fill="#7B70F5"/>
<path id="Rectangle 69" d="M1146.28 549.654L1150.28 549.654L1150.28 552.391L1146.28 552.391L1146.28 549.654Z" fill="#7B70F5"/>
<path id="Rectangle 70" d="M1157.28 549.654L1161.28 549.654L1161.28 552.391L1157.28 552.391L1157.28 549.654Z" fill="#7B70F5"/>
<path id="Rectangle 71" d="M1144 569.737L1140 569.737L1140 567L1144 567L1144 569.737Z" fill="#7B70F5"/>
<path id="Rectangle 72" d="M1143 574.737L1139 574.737L1139 572L1143 572L1143 574.737Z" fill="#7B70F5"/>
<path id="Rectangle 73" d="M1149 574.737L1145 574.737L1145 572L1149 572L1149 574.737Z" fill="#7B70F5"/>
<path id="Rectangle 74" d="M1139 574.737L1135 574.737L1135 572L1139 572L1139 574.737Z" fill="#7B70F5"/>
<path id="Rectangle 75" d="M1152 569.737L1148 569.737L1148 567L1152 567L1152 569.737Z" fill="#7B70F5"/>
<path id="Rectangle 76" d="M1137 569.737L1133 569.737L1133 567L1137 567L1137 569.737Z" fill="#7B70F5"/>
<path id="Rectangle 77" d="M1148 569.737L1144 569.737L1144 567L1148 567L1148 569.737Z" fill="#7B70F5"/>
<path id="Rectangle 78" d="M1170 589.737L1166 589.737L1166 587L1170 587L1170 589.737Z" fill="#7B70F5"/>
<path id="Rectangle 79" d="M1169 594.737L1165 594.737L1165 592L1169 592L1169 594.737Z" fill="#7B70F5"/>
<path id="Rectangle 80" d="M1175 594.737L1171 594.737L1171 592L1175 592L1175 594.737Z" fill="#7B70F5"/>
<path id="Rectangle 81" d="M1165 594.737L1161 594.737L1161 592L1165 592L1165 594.737Z" fill="#7B70F5"/>
<path id="Rectangle 82" d="M1178 589.737L1174 589.737L1174 587L1178 587L1178 589.737Z" fill="#7B70F5"/>
<path id="Rectangle 83" d="M1163 589.737L1159 589.737L1159 587L1163 587L1163 589.737Z" fill="#7B70F5"/>
<path id="Rectangle 84" d="M1174 589.737L1170 589.737L1170 587L1174 587L1174 589.737Z" fill="#7B70F5"/>
<path id="Rectangle 59" d="M1109.28 578.654L1113.28 578.654L1113.28 581.654L1109.28 581.654L1109.28 578.654Z" fill="#7B70F5"/>
<path id="Rectangle 60" d="M1114.28 583.654L1118.28 583.654L1118.28 586.654L1114.28 586.654L1114.28 583.654Z" fill="#7B70F5"/>
<path id="Rectangle 61" d="M1117.28 578.654L1121.28 578.654L1121.28 581.654L1117.28 581.654L1117.28 578.654Z" fill="#7B70F5"/>
<path id="Rectangle 62" d="M1102.28 578.654L1106.28 578.654L1106.28 581.654L1102.28 581.654L1102.28 578.654Z" fill="#7B70F5"/>
<path id="Rectangle 63" d="M1113.28 578.654L1117.28 578.654L1117.28 581.654L1113.28 581.654L1113.28 578.654Z" fill="#7B70F5"/>
<path id="Rectangle 52" d="M1146.26 500.772L1288.47 682.151L1261.81 721.121L1146.26 500.772Z" fill="#390165"/>
</g>
<g id="Ellipse 12">
<path id="Ellipse 12_2" d="M958.5 417.5C-445.5 817 2228 429 1960.5 708C2189.5 1695.5 -732.5 1500 -732.5 536.5C-732.5 257.596 -204.362 514 203.5 514C611.362 514 391.5 452.5 958.5 417.5Z" fill="white"/>
<ellipse id="Ellipse 14" cx="35" cy="625" rx="15" ry="8" fill="#C4C4C4"/>
<ellipse id="Ellipse 15" cx="35" cy="625" rx="15" ry="8" fill="#C4C4C4"/>
<ellipse id="Ellipse 16" cx="187" cy="597" rx="15" ry="8" fill="#C4C4C4"/>
<ellipse id="Ellipse 21" cx="209.5" cy="569" rx="12.5" ry="7" fill="#C4C4C4"/>
<ellipse id="Ellipse 22" cx="239.5" cy="583" rx="12.5" ry="7" fill="#C4C4C4"/>
<ellipse id="Ellipse 23" cx="262" cy="562.5" rx="10" ry="6.5" fill="#C4C4C4"/>
<ellipse id="Ellipse 24" cx="287" cy="573.5" rx="10" ry="6.5" fill="#C4C4C4"/>
<ellipse id="Ellipse 25" cx="303" cy="556" rx="9" ry="6" fill="#C4C4C4"/>
<ellipse id="Ellipse 26" cx="326" cy="563" rx="9" ry="6" fill="#C4C4C4"/>
<ellipse id="Ellipse 27" cx="343" cy="548.5" rx="8" ry="4.5" fill="#C4C4C4"/>
<ellipse id="Ellipse 28" cx="365" cy="554.5" rx="8" ry="4.5" fill="#C4C4C4"/>
<ellipse id="Ellipse 29" cx="373.5" cy="540.5" rx="6.5" ry="3.5" fill="#C4C4C4"/>
<ellipse id="Ellipse 30" cx="391.5" cy="544.5" rx="6.5" ry="3.5" fill="#C4C4C4"/>
<ellipse id="Ellipse 31" cx="399.5" cy="532.5" rx="5.5" ry="2.5" fill="#C4C4C4"/>
<ellipse id="Ellipse 32" cx="414.5" cy="535.5" rx="5.5" ry="2.5" fill="#C4C4C4"/>
<ellipse id="Ellipse 33" cx="417.5" cy="527" rx="5.5" ry="2" fill="#C4C4C4"/>
<ellipse id="Ellipse 34" cx="431.5" cy="529" rx="5.5" ry="2" fill="#C4C4C4"/>
<ellipse id="Ellipse 35" cx="434.5" cy="523" rx="5.5" ry="2" fill="#C4C4C4"/>
<ellipse id="Ellipse 37" cx="449" cy="518.5" rx="5" ry="1.5" fill="#C4C4C4"/>
<ellipse id="Ellipse 38" cx="461" cy="520.5" rx="5" ry="1.5" fill="#C4C4C4"/>
<ellipse id="Ellipse 39" cx="464" cy="515.5" rx="5" ry="1.5" fill="#C4C4C4"/>
<ellipse id="Ellipse 40" cx="475" cy="517.5" rx="5" ry="1.5" fill="#C4C4C4"/>
<path id="Ellipse 41" d="M480 512C480 512.552 477.985 513 475.5 513C473.015 513 471 512.552 471 512C471 511.448 473.015 511 475.5 511C477.985 511 480 511.448 480 512Z" fill="#C4C4C4"/>
<path id="Ellipse 42" d="M491 513C491 513.552 488.985 514 486.5 514C484.015 514 482 513.552 482 513C482 512.448 484.015 512 486.5 512C488.985 512 491 512.448 491 513Z" fill="#C4C4C4"/>
<path id="Ellipse 43" d="M494 509C494 509.552 491.985 510 489.5 510C487.015 510 485 509.552 485 509C485 508.448 487.015 508 489.5 508C491.985 508 494 508.448 494 509Z" fill="#C4C4C4"/>
<path id="Ellipse 44" d="M505 510C505 510.552 502.985 511 500.5 511C498.015 511 496 510.552 496 510C496 509.448 498.015 509 500.5 509C502.985 509 505 509.448 505 510Z" fill="#C4C4C4"/>
<path id="Ellipse 45" d="M507 506C507 506.552 504.985 507 502.5 507C500.015 507 498 506.552 498 506C498 505.448 500.015 505 502.5 505C504.985 505 507 505.448 507 506Z" fill="#C4C4C4"/>
<path id="Ellipse 46" d="M518 507C518 507.552 515.985 508 513.5 508C511.015 508 509 507.552 509 507C509 506.448 511.015 506 513.5 506C515.985 506 518 506.448 518 507Z" fill="#C4C4C4"/>
<path id="Ellipse 47" d="M519 502.5C519 502.776 517.209 503 515 503C512.791 503 511 502.776 511 502.5C511 502.224 512.791 502 515 502C517.209 502 519 502.224 519 502.5Z" fill="#C4C4C4"/>
<path id="Ellipse 48" d="M527 503.5C527 503.776 525.209 504 523 504C520.791 504 519 503.776 519 503.5C519 503.224 520.791 503 523 503C525.209 503 527 503.224 527 503.5Z" fill="#C4C4C4"/>
<path id="Ellipse 49" d="M529 499.5C529 499.776 527.209 500 525 500C522.791 500 521 499.776 521 499.5C521 499.224 522.791 499 525 499C527.209 499 529 499.224 529 499.5Z" fill="#C4C4C4"/>
<path id="Ellipse 50" d="M538 500.5C538 500.776 536.209 501 534 501C531.791 501 530 500.776 530 500.5C530 500.224 531.791 500 534 500C536.209 500 538 500.224 538 500.5Z" fill="#C4C4C4"/>
<path id="Ellipse 51" d="M540 496.5C540 496.776 538.209 497 536 497C533.791 497 532 496.776 532 496.5C532 496.224 533.791 496 536 496C538.209 496 540 496.224 540 496.5Z" fill="#C4C4C4"/>
<path id="Ellipse 52" d="M549 498.5C549 498.776 547.209 499 545 499C542.791 499 541 498.776 541 498.5C541 498.224 542.791 498 545 498C547.209 498 549 498.224 549 498.5Z" fill="#C4C4C4"/>
<path id="Ellipse 53" d="M547 494.5C547 494.776 545.657 495 544 495C542.343 495 541 494.776 541 494.5C541 494.224 542.343 494 544 494C545.657 494 547 494.224 547 494.5Z" fill="#C4C4C4"/>
<path id="Ellipse 54" d="M555 495.5C555 495.776 553.657 496 552 496C550.343 496 549 495.776 549 495.5C549 495.224 550.343 495 552 495C553.657 495 555 495.224 555 495.5Z" fill="#C4C4C4"/>
<path id="Ellipse 55" d="M557 492.5C557 492.776 555.657 493 554 493C552.343 493 551 492.776 551 492.5C551 492.224 552.343 492 554 492C555.657 492 557 492.224 557 492.5Z" fill="#C4C4C4"/>
<path id="Ellipse 56" d="M564 493.5C564 493.224 562.657 493 561 493C559.343 493 558 493.224 558 493.5C558 493.776 559.343 494 561 494C562.657 494 564 493.776 564 493.5Z" fill="#C4C4C4"/>
<path id="Ellipse 57" d="M566 490.5C566 490.224 564.657 490 563 490C561.343 490 560 490.224 560 490.5C560 490.776 561.343 491 563 491C564.657 491 566 490.776 566 490.5Z" fill="#C4C4C4"/>
<path id="Ellipse 58" d="M570 491.5C570 491.776 569.105 492 568 492C566.895 492 566 491.776 566 491.5C566 491.224 566.895 491 568 491C569.105 491 570 491.224 570 491.5Z" fill="#C4C4C4"/>
<path id="Ellipse 59" d="M572 489.5C572 489.776 571.105 490 570 490C568.895 490 568 489.776 568 489.5C568 489.224 568.895 489 570 489C571.105 489 572 489.224 572 489.5Z" fill="#C4C4C4"/>
<path id="Ellipse 60" d="M576 490.5C576 490.776 575.105 491 574 491C572.895 491 572 490.776 572 490.5C572 490.224 572.895 490 574 490C575.105 490 576 490.224 576 490.5Z" fill="#C4C4C4"/>
<path id="Ellipse 61" d="M578 488.5C578 488.776 577.105 489 576 489C574.895 489 574 488.776 574 488.5C574 488.224 574.895 488 576 488C577.105 488 578 488.224 578 488.5Z" fill="#C4C4C4"/>
<path id="Ellipse 62" d="M583 489.5C583 489.224 582.105 489 581 489C579.895 489 579 489.224 579 489.5C579 489.776 579.895 490 581 490C582.105 490 583 489.776 583 489.5Z" fill="#C4C4C4"/>
<path id="Ellipse 63" d="M584 487.5C584 487.224 583.105 487 582 487C580.895 487 580 487.224 580 487.5C580 487.776 580.895 488 582 488C583.105 488 584 487.776 584 487.5Z" fill="#C4C4C4"/>
<ellipse id="Ellipse 36" cx="448.5" cy="525" rx="5.5" ry="2" fill="#C4C4C4"/>
<ellipse id="Ellipse 17" cx="5" cy="597" rx="15" ry="8" fill="#C4C4C4"/>
<ellipse id="Ellipse 18" cx="141" cy="581" rx="15" ry="8" fill="#C4C4C4"/>
<ellipse id="Ellipse 19" cx="111" cy="609" rx="15" ry="8" fill="#C4C4C4"/>
<ellipse id="Ellipse 20" cx="65" cy="597" rx="15" ry="8" fill="#C4C4C4"/>
</g>
<ellipse id="Ellipse 70" cx="1361.03" cy="132.377" rx="33.5" ry="29" transform="rotate(-10 1361.03 132.377)" fill="url(#paint5_linear)"/>
<path id="Ellipse 62_2" d="M589 487.5C589 487.224 588.105 487 587 487C585.895 487 585 487.224 585 487.5C585 487.776 585.895 488 587 488C588.105 488 589 487.776 589 487.5Z" fill="#C4C4C4"/>
<path id="Ellipse 71" d="M590 485.5C590 485.224 589.552 485 589 485C588.448 485 588 485.224 588 485.5C588 485.776 588.448 486 589 486C589.552 486 590 485.776 590 485.5Z" fill="#C4C4C4"/>
<path id="Ellipse 72" d="M593 485.5C593 485.224 592.552 485 592 485C591.448 485 591 485.224 591 485.5C591 485.776 591.448 486 592 486C592.552 486 593 485.776 593 485.5Z" fill="#C4C4C4"/>
<path id="Ellipse 73" d="M594 483.5C594 483.224 593.552 483 593 483C592.448 483 592 483.224 592 483.5C592 483.776 592.448 484 593 484C593.552 484 594 483.776 594 483.5Z" fill="#C4C4C4"/>
<path id="Ellipse 74" d="M597 483.5C597 483.224 596.552 483 596 483C595.448 483 595 483.224 595 483.5C595 483.776 595.448 484 596 484C596.552 484 597 483.776 597 483.5Z" fill="#C4C4C4"/>
<path id="Ellipse 75" d="M598 481.5C598 481.224 597.552 481 597 481C596.448 481 596 481.224 596 481.5C596 481.776 596.448 482 597 482C597.552 482 598 481.776 598 481.5Z" fill="#C4C4C4"/>
<path id="Ellipse 76" d="M601 481.5C601 481.224 600.552 481 600 481C599.448 481 599 481.224 599 481.5C599 481.776 599.448 482 600 482C600.552 482 601 481.776 601 481.5Z" fill="#C4C4C4"/>
<path id="Ellipse 77" d="M601 479.5C601 479.224 600.552 479 600 479C599.448 479 599 479.224 599 479.5C599 479.776 599.448 480 600 480C600.552 480 601 479.776 601 479.5Z" fill="#C4C4C4"/>
<path id="Ellipse 78" d="M603 480.5C603 480.224 602.776 480 602.5 480C602.224 480 602 480.224 602 480.5C602 480.776 602.224 481 602.5 481C602.776 481 603 480.776 603 480.5Z" fill="#C4C4C4"/>
<path id="Ellipse 79" d="M604 477.5C604 477.224 603.776 477 603.5 477C603.224 477 603 477.224 603 477.5C603 477.776 603.224 478 603.5 478C603.776 478 604 477.776 604 477.5Z" fill="#C4C4C4"/>
<path id="Ellipse 80" d="M606 478.5C606 478.224 605.776 478 605.5 478C605.224 478 605 478.224 605 478.5C605 478.776 605.224 479 605.5 479C605.776 479 606 478.776 606 478.5Z" fill="#C4C4C4"/>
<path id="Ellipse 81" d="M607 476.5C607 476.224 606.776 476 606.5 476C606.224 476 606 476.224 606 476.5C606 476.776 606.224 477 606.5 477C606.776 477 607 476.776 607 476.5Z" fill="#C4C4C4"/>
</g>
</g>
<defs>
<linearGradient id="paint0_linear" x1="720" y1="0" x2="904.969" y2="1076.33" gradientUnits="userSpaceOnUse">
<stop stop-color="#390165"/>
<stop offset="0.431617" stop-color="#801ECD"/>
<stop offset="0.530575" stop-color="#7224AF"/>
<stop offset="0.624325" stop-color="#7A14CB"/>
<stop offset="0.749325" stop-color="#DAC1ED"/>
<stop offset="0.822242" stop-color="#E4D3F2"/>
<stop offset="0.9212" stop-color="#F3EBF9"/>
<stop offset="1" stop-color="white"/>
</linearGradient>
<linearGradient id="paint1_linear" x1="834.5" y1="418" x2="1059.18" y2="899.64" gradientUnits="userSpaceOnUse">
<stop stop-color="#7862FF"/>
<stop offset="1" stop-color="#B163FF" stop-opacity="0"/>
</linearGradient>
<linearGradient id="paint2_linear" x1="1196" y1="470" x2="1196" y2="499.5" gradientUnits="userSpaceOnUse">
<stop stop-color="#6F38F1"/>
<stop offset="1" stop-color="#D810F9" stop-opacity="0.73"/>
</linearGradient>
<linearGradient id="paint3_linear" x1="1176.5" y1="469.5" x2="1174.5" y2="499.5" gradientUnits="userSpaceOnUse">
<stop stop-color="#05FFE1"/>
<stop offset="0.733732" stop-color="#BC75D5"/>
<stop offset="1" stop-color="#D810F9" stop-opacity="0.85"/>
</linearGradient>
<linearGradient id="paint4_linear" x1="1115.61" y1="219" x2="1115.61" y2="763" gradientUnits="userSpaceOnUse">
<stop stop-color="#6F38F1"/>
<stop offset="1" stop-color="#872AFF"/>
</linearGradient>
<linearGradient id="paint5_linear" x1="1281.5" y1="105.278" x2="1367.3" y2="168.64" gradientUnits="userSpaceOnUse">
<stop stop-color="#CA0606"/>
<stop offset="1" stop-color="#C4C4C4" stop-opacity="0"/>
</linearGradient>
<clipPath id="clip0">
<rect width="1440" height="763" fill="white"/>
</clipPath>
</defs>
</svg>
